<svg xmlns="http://www.w3.org/2000/svg" version="1.1" xmlns:xlink="http://www.w3.org/1999/xlink" xmlns:svgjs="http://svgjs.dev/svgjs" width="1920" height="1080" preserveAspectRatio="none" viewBox="0 0 1920 1080"><g mask="url(&quot;#SvgjsMask1002&quot;)" fill="none"><path d="M706.27 1222.38C894.14 1133.24 808.67 531.56 1164.71 528.35 1520.75 525.14 1838.52 847.63 2081.58 852.35" stroke="rgba(140, 234, 90, 1)" stroke-width="2"></path><path d="M493.34 1265.59C693.65 1172.53 605.03 534.3 985.01 531.56 1364.98 528.82 1705.99 892.83 1968.34 898.76" stroke="rgba(140, 234, 90, 1)" stroke-width="2"></path><path d="M714.47 1149.38C995.65 1050.19 1070.09 220.62 1457.07 216.13 1844.04 211.64 1977.4 690.73 2199.66 712.93" stroke="rgba(140, 234, 90, 1)" stroke-width="2"></path><path d="M1042.49 1270.89C1229.76 1208.9 1281.59 666.27 1545.01 662.55 1808.43 658.83 1902.65 943.84 2047.53 954.15" stroke="rgba(140, 234, 90, 1)" stroke-width="2"></path><path d="M682.78 1158.84C926.97 1062.81 976.52 323.98 1309.76 317.11 1643 310.24 1752.94 690.56 1936.74 705.91" stroke="rgba(140, 234, 90, 1)" stroke-width="2"></path></g><defs><mask id="SvgjsMask1002"><rect width="1920" height="1080" fill="#ffffff"></rect></mask></defs></svg>